<?xml version="1.0" standalone="no"?>
<!DOCTYPE svg PUBLIC "-//W3C//DTD SVG 20010904//EN"
 "http://www.w3.org/TR/2001/REC-SVG-20010904/DTD/svg10.dtd">
<svg version="1.0" xmlns="http://www.w3.org/2000/svg"
 width="993.000000pt" height="924.000000pt" viewBox="0 0 993.000000 924.000000"
 preserveAspectRatio="xMidYMid meet">

<g transform="translate(0.000000,924.000000) scale(0.100000,-0.100000)"
fill="#000000" stroke="none">
<path d="M0 4620 l0 -4620 4965 0 4965 0 0 4620 0 4620 -4965 0 -4965 0 0
-4620z m5037 2988 c18 -7 33 -15 33 -19 0 -10 -81 -18 -239 -24 -86 -3 -139
-9 -149 -17 -12 -10 -14 -10 -8 0 4 6 3 12 -3 12 -5 0 -12 -4 -15 -9 -3 -5
-15 -11 -26 -14 -11 -3 -18 -2 -15 3 6 9 -25 23 -33 15 -3 -3 1 -5 9 -6 8 0
-11 -7 -41 -14 -30 -7 -59 -11 -64 -8 -5 4 -6 0 -1 -7 6 -10 3 -12 -13 -8 -12
4 -20 3 -18 -1 3 -4 -28 -15 -67 -26 -40 -10 -74 -20 -77 -20 -3 -1 -12 -4
-20 -7 -133 -51 -248 -77 -265 -60 -9 9 29 30 75 42 25 7 52 18 61 26 23 20
281 84 350 87 32 1 55 5 53 8 -4 6 170 35 276 45 36 3 67 8 69 10 9 9 97 3
128 -8z m792 -83 c60 -20 113 -40 116 -46 4 -5 10 -7 15 -4 9 6 97 -32 105
-44 2 -4 -12 -8 -31 -8 -22 -1 -32 3 -27 10 4 6 0 8 -9 4 -9 -3 -19 -3 -23 1
-4 4 -21 8 -38 9 -38 1 -314 70 -339 84 -10 5 -24 9 -32 9 -8 0 -17 4 -20 9
-4 5 4 7 16 4 19 -4 20 -3 8 7 -33 26 145 2 259 -35z m-501 6 c1 -4 15 -6 30
-4 53 8 426 -62 416 -78 -3 -5 1 -6 9 -3 26 10 318 -92 316 -111 0 -5 -9 -23
-19 -40 -11 -16 -33 -56 -49 -87 -17 -32 -43 -77 -58 -100 -15 -24 -38 -63
-52 -88 -13 -25 -91 -161 -172 -303 -82 -141 -150 -263 -152 -270 -1 -6 -7
-16 -13 -22 -6 -5 -26 -37 -44 -70 -17 -33 -36 -64 -41 -70 -6 -6 -160 -10
-422 -10 l-412 0 -17 28 c-10 15 -18 29 -18 32 0 3 -22 41 -50 86 -27 44 -50
83 -50 85 0 3 -51 94 -114 202 -277 481 -344 598 -350 618 -6 20 1 25 76 52
258 93 505 144 803 166 77 6 380 -5 383 -13z m-1977 -534 c-10 -9 -11 -8 -5 6
3 10 9 15 12 12 3 -3 0 -11 -7 -18z m3650 -109 c33 -32 59 -65 59 -74 0 -14
-2 -15 -17 -3 -11 10 -14 10 -9 2 8 -15 5 -16 -18 -7 -9 3 -13 11 -9 17 3 5 1
7 -5 3 -18 -11 -81 27 -91 57 -6 15 -14 27 -18 27 -5 0 -14 9 -21 21 -9 13 -9
18 -2 14 8 -5 7 0 -1 13 -7 12 -16 19 -19 17 -4 -2 -7 2 -7 10 0 23 95 -35
158 -97z m-3711 67 c-14 -17 -30 -20 -30 -5 0 6 7 10 15 10 8 0 15 5 15 12 0
6 3 8 6 5 4 -4 1 -13 -6 -22z m170 -12 c11 -21 29 -51 39 -68 10 -16 76 -129
146 -250 70 -121 145 -249 166 -285 l39 -65 -183 -6 c-100 -4 -341 -7 -534 -8
l-353 0 70 102 c38 56 99 140 136 187 66 83 338 360 353 360 5 0 25 16 45 35
21 19 42 35 47 35 5 0 18 -17 29 -37z m3315 5 c21 -18 57 -50 80 -70 22 -20
57 -51 79 -69 21 -19 79 -79 128 -134 49 -55 97 -109 107 -120 61 -68 193
-260 184 -269 -7 -7 -1033 -8 -1033 -1 0 5 250 437 307 530 13 22 26 48 30 58
3 9 9 17 14 17 5 0 9 6 9 13 0 16 38 77 48 77 4 0 25 -15 47 -32z m-3548 -51
c-8 -13 -43 -52 -76 -86 -34 -35 -58 -68 -54 -74 4 -7 0 -8 -11 -4 -10 4 -15
3 -11 -3 3 -5 -4 -14 -15 -20 -12 -6 -19 -18 -16 -25 3 -9 0 -12 -9 -9 -7 3
-18 -4 -25 -15 -8 -16 -8 -21 2 -22 7 0 2 -5 -11 -10 -15 -6 -21 -15 -17 -24
3 -8 2 -15 -3 -15 -5 0 -19 -16 -32 -35 -13 -19 -30 -35 -37 -35 -6 0 -11 -3
-11 -7 5 -31 -43 -74 -88 -79 -65 -7 -24 70 112 209 52 53 100 97 106 97 5 0
26 16 46 35 20 19 39 32 44 29 5 -3 6 3 2 12 -4 12 -3 15 5 10 7 -4 12 -3 12
1 0 14 89 107 96 100 4 -4 0 -17 -9 -30z m4183 -487 c0 -5 -2 -10 -4 -10 -3 0
-8 5 -11 10 -3 6 -1 10 4 10 6 0 11 -4 11 -10z m53 -76 c5 -29 3 -29 -23 -7
-11 10 -20 28 -20 42 0 23 1 23 19 7 10 -9 21 -28 24 -42z m48 -319 c33 -69
61 -135 62 -145 1 -11 4 -20 8 -20 23 0 168 -536 169 -622 0 -17 -26 -18 -411
-18 -228 0 -409 4 -407 9 6 17 513 921 516 921 2 0 30 -56 63 -125z m-2531
111 c0 -9 -39 -13 -51 -5 -10 6 -4 9 19 9 17 0 32 -2 32 -4z m240 -11 c0 -12
-14 -15 -69 -15 -56 0 -70 -3 -76 -17 -5 -15 -4 -16 6 -5 8 7 41 12 86 12 42
0 73 4 73 10 0 6 5 10 10 10 7 0 7 -8 -1 -22 -9 -19 -9 -21 2 -10 18 17 40 15
54 -5 11 -15 15 -15 29 -4 9 8 16 9 16 3 0 -7 10 -8 30 -2 17 5 30 5 30 1 0
-4 18 -8 41 -9 24 -1 38 2 34 8 -3 6 -2 10 4 10 5 0 11 -4 13 -9 3 -7 167 -18
418 -27 41 -1 296 -3 565 -4 l490 0 -75 -42 c-41 -22 -154 -86 -250 -141 -96
-55 -197 -113 -225 -129 -69 -40 -89 -52 -95 -59 -22 -25 -81 -39 -167 -39
-78 0 -93 -3 -93 -16 0 -11 6 -14 22 -9 17 6 20 4 15 -9 -4 -9 -2 -16 3 -16 6
0 10 -9 10 -20 0 -11 6 -20 14 -20 7 0 17 -8 20 -17 11 -30 32 -63 55 -84 23
-21 27 -39 10 -39 -6 0 -1 -12 10 -27 20 -25 21 -27 4 -47 -18 -21 -18 -21 3
-3 21 18 28 47 11 47 -6 0 -7 3 -4 6 4 4 14 1 24 -7 9 -8 14 -9 11 -4 -3 6 5
30 18 55 12 25 23 41 24 35 0 -5 7 5 15 22 11 25 30 40 82 65 37 18 70 36 71
41 2 4 7 7 12 7 13 0 414 228 508 288 20 13 22 13 16 -3 -4 -10 -29 -56 -57
-104 -105 -182 -321 -576 -431 -785 -26 -49 -65 -122 -87 -163 -23 -40 -38
-73 -35 -73 4 0 -2 -10 -14 -22 -11 -12 -20 -30 -20 -40 0 -10 -7 -21 -15 -24
-13 -5 -12 -10 6 -25 24 -20 21 -22 -32 -22 -21 0 -18 -20 6 -47 19 -21 8 -29
-13 -8 -15 15 -16 3 -1 -21 16 -24 3 -75 -16 -67 -12 4 -11 0 2 -22 17 -26 17
-27 -2 -12 -10 8 -16 10 -12 4 4 -7 0 -29 -9 -49 -9 -22 -10 -34 -4 -30 6 4 2
-11 -9 -34 -12 -22 -21 -47 -21 -55 0 -7 -6 -16 -14 -19 -9 -4 -12 -14 -9 -26
3 -12 1 -21 -5 -21 -5 0 -12 -13 -15 -29 -4 -17 -14 -30 -26 -34 -12 -3 -21
-12 -21 -21 0 -9 -9 -33 -20 -53 -13 -25 -20 -31 -20 -19 0 21 -9 17 -15 -6
-9 -37 -18 -58 -26 -58 -5 0 -9 6 -10 13 0 9 -2 9 -6 -1 -2 -6 -9 -10 -14 -7
-5 4 -6 -1 -2 -10 5 -13 7 -14 14 -3 5 7 9 9 9 3 0 -5 -9 -23 -20 -40 -11 -16
-20 -24 -20 -17 0 14 -38 -3 -75 -33 -11 -9 -14 -14 -7 -10 6 3 12 1 12 -6 0
-6 -8 -9 -20 -6 -13 3 -18 1 -13 -6 4 -6 0 -8 -10 -4 -10 3 -17 2 -17 -3 0 -5
-6 -10 -12 -13 -7 -2 -6 -3 4 -2 10 2 18 -6 21 -21 5 -26 -7 -33 -17 -9 -3 8
-11 15 -18 15 -9 0 -9 -3 -2 -8 6 -4 14 -16 17 -27 7 -19 6 -19 -7 -3 -12 17
-14 17 -28 0 -8 -9 -28 -39 -44 -67 -15 -27 -31 -52 -34 -55 -3 -3 -12 -17
-20 -32 -44 -80 -84 -144 -92 -149 -5 -3 -9 -8 -7 -10 3 -4 -64 -119 -131
-226 -43 -69 -300 -509 -346 -590 l-29 -53 -5 393 c-4 291 -2 400 7 425 7 17
10 32 7 32 -3 0 1 7 10 15 8 9 12 23 9 32 -4 9 -2 14 3 10 5 -3 14 5 20 17 8
18 7 22 -7 22 -9 0 -15 -6 -12 -12 2 -7 0 -15 -6 -19 -6 -3 -11 -2 -11 3 0 6
-8 13 -17 16 -15 6 -15 5 -1 -11 24 -28 29 -41 19 -47 -5 -3 -15 2 -22 11 -10
12 -10 14 -1 9 6 -4 12 -3 12 3 0 6 -9 15 -21 22 -19 10 -20 9 -14 -13 5 -18
4 -19 -4 -8 -7 11 -29 15 -76 15 -36 0 -65 -4 -65 -9 0 -4 -7 -6 -15 -2 -13 4
-14 2 -5 -14 6 -11 13 -20 16 -20 3 0 2 6 -2 13 -4 6 -3 9 1 4 5 -4 10 -17 12
-30 4 -34 2 -811 -2 -816 -3 -2 -8 5 -12 15 -5 15 -240 411 -312 525 -9 15
-31 53 -50 85 -19 33 -38 61 -43 62 -4 2 -6 8 -2 13 3 5 0 9 -5 9 -6 0 -11 7
-11 15 0 8 -4 15 -10 15 -5 0 -10 4 -10 9 0 5 -28 53 -61 107 -89 143 -111
176 -133 202 -11 12 -16 22 -12 22 4 0 2 9 -4 20 -6 11 -15 20 -21 20 -6 0 -7
-6 -3 -12 5 -10 3 -10 -7 0 -11 10 -11 14 -1 21 9 6 7 12 -9 27 -14 12 -19 13
-14 4 6 -12 5 -12 -5 -3 -7 6 -19 9 -28 6 -9 -4 -13 -2 -9 5 4 6 2 12 -5 15
-7 2 1 2 17 0 l30 -4 -28 15 c-15 8 -34 13 -42 9 -8 -3 -15 0 -15 6 0 6 8 12
18 12 16 1 16 2 -1 6 -16 4 -15 6 5 25 13 11 17 16 9 12 -11 -5 -13 -3 -7 11
5 15 4 16 -9 5 -13 -11 -13 -15 -3 -22 9 -5 6 -7 -9 -5 -12 2 -26 7 -30 12 -5
4 -1 5 7 1 8 -4 6 0 -4 8 -11 9 -26 16 -34 16 -9 0 -12 6 -8 16 3 8 2 12 -4 9
-6 -3 -13 2 -17 12 -9 24 -26 35 -34 21 -4 -5 -6 3 -6 18 0 19 -10 36 -32 54
-17 15 -31 31 -31 36 0 6 -8 19 -19 30 -25 27 -36 64 -20 64 7 0 4 6 -6 14
-11 8 -22 13 -25 11 -3 -2 -6 9 -7 23 0 15 -6 28 -12 30 -14 5 -34 79 -25 95
6 8 3 8 -8 -1 -13 -10 -18 -10 -24 -1 -4 7 -3 9 3 6 6 -4 14 0 17 9 3 8 2 13
-3 10 -5 -3 -8 12 -6 34 2 31 -2 44 -18 55 -13 9 -18 21 -14 34 3 14 0 21 -10
21 -8 0 -11 5 -8 10 3 6 18 8 33 5 25 -5 25 -5 5 4 -22 10 -26 17 -26 53 0 10
-4 15 -8 12 -5 -3 -6 -10 -3 -16 4 -7 2 -8 -5 -4 -6 4 -9 11 -6 16 3 5 1 11
-5 15 -6 4 -7 11 -4 17 5 7 2 9 -8 6 -10 -4 -14 0 -13 15 3 29 -5 48 -16 41
-5 -3 -7 -10 -4 -15 3 -5 -1 -6 -9 -3 -14 5 -14 8 -1 21 13 13 13 18 -5 40
-11 14 -20 29 -20 33 0 5 -16 37 -36 72 -20 34 -54 97 -76 138 -97 179 -112
206 -130 232 -10 14 -18 29 -18 32 0 3 -25 50 -56 104 -152 262 -295 514 -292
517 2 1 73 -38 158 -87 143 -83 209 -120 345 -192 28 -15 64 -35 80 -46 17
-11 41 -25 55 -32 37 -18 70 -45 64 -51 -3 -3 -1 -12 5 -19 46 -56 60 -76 54
-81 -3 -4 2 -9 11 -13 9 -3 16 -14 16 -23 0 -9 10 -22 23 -30 19 -12 20 -12
11 0 -15 18 -24 70 -11 62 11 -7 27 15 27 40 0 10 12 29 26 42 14 13 26 27 26
32 2 30 55 103 75 103 6 0 16 6 22 13 12 15 7 16 -152 21 -43 2 -83 8 -90 15
-6 6 -14 11 -19 11 -4 0 -96 53 -205 118 -109 65 -249 147 -312 183 l-114 64
209 7 c256 8 761 19 1024 23 381 5 388 5 394 21 4 10 19 13 56 10 50 -3 69 8
28 18 -13 2 -6 4 14 2 20 -1 34 2 32 6 -8 13 11 9 25 -4 11 -11 13 -10 9 2 -5
13 11 15 106 14 88 -1 99 0 51 6 l-60 7 63 1 c49 2 62 -1 62 -13z m97 9 c-3
-3 -12 -4 -19 -1 -8 3 -5 6 6 6 11 1 17 -2 13 -5z m-2582 -72 c16 -31 35 -64
41 -72 6 -8 100 -170 209 -360 108 -190 206 -360 217 -378 l20 -32 -406 0
c-376 1 -406 2 -406 18 1 28 49 263 66 322 34 117 68 218 96 290 36 91 120
270 128 270 3 0 18 -26 35 -58z m2578 51 c-7 -2 -21 -2 -30 0 -10 3 -4 5 12 5
17 0 24 -2 18 -5z m87 -1 c0 -5 -7 -9 -15 -9 -8 0 -15 4 -15 9 0 4 7 8 15 8 8
0 15 -4 15 -8z m-70 -22 c0 -5 -2 -10 -4 -10 -3 0 -8 5 -11 10 -3 6 -1 10 4
10 6 0 11 -4 11 -10z m120 0 c0 -5 -7 -7 -15 -4 -8 4 -15 8 -15 10 0 2 7 4 15
4 8 0 15 -4 15 -10z m-645 -10 c3 -6 -1 -7 -9 -4 -18 7 -21 14 -7 14 6 0 13
-4 16 -10z m-2281 -75 c-19 -30 -26 -28 -17 3 3 12 12 22 19 22 12 0 11 -5 -2
-25z m5223 -192 c4 -10 19 -38 33 -63 27 -46 60 -137 60 -165 0 -8 4 -23 9
-33 14 -28 33 -120 38 -184 2 -33 10 -72 18 -87 17 -34 33 -227 17 -217 -6 3
-13 21 -17 39 -4 17 -13 42 -21 54 -8 13 -16 40 -18 61 -2 21 -11 53 -20 70
-9 17 -16 38 -16 47 0 8 -3 15 -7 15 -5 0 -9 12 -10 28 -5 58 -15 112 -23 112
-4 0 -10 18 -14 40 -3 23 -12 40 -19 40 -8 0 -14 15 -15 38 -2 20 -7 38 -12
40 -5 2 -7 9 -4 16 3 8 -2 16 -10 19 -9 4 -16 13 -16 22 0 8 -4 15 -9 15 -11
0 2 51 21 88 14 26 26 28 35 5z m-3670 -199 c-3 -3 -12 -4 -19 -1 -8 3 -5 6 6
6 11 1 17 -2 13 -5z m-47 -21 c-8 -3 -21 -10 -28 -16 -9 -7 -11 -6 -6 7 3 9
16 16 28 15 14 0 16 -2 6 -6z m2241 -140 c13 -16 12 -17 -3 -4 -10 7 -18 15
-18 17 0 8 8 3 21 -13z m-17 -25 c-4 -6 0 -14 7 -19 10 -6 8 -8 -8 -6 -17 1
-20 5 -13 18 5 9 6 20 2 24 -4 5 -1 5 6 1 7 -4 9 -12 6 -18z m-2324 2 c0 -5
-7 -7 -15 -4 -8 4 -15 8 -15 10 0 2 7 4 15 4 8 0 15 -4 15 -10z m-1603 -99 c6
-84 6 -93 0 -131 -6 -39 -58 -159 -83 -193 -15 -21 -16 -14 -10 98 5 115 17
177 53 274 14 38 17 41 26 25 6 -10 12 -43 14 -73z m4033 -735 c14 -18 14 -18
-7 -6 -12 8 -19 18 -16 23 3 4 6 7 7 5 1 -2 8 -12 16 -22z m-2543 -12 c-3 -3
-12 -4 -19 -1 -8 3 -5 6 6 6 11 1 17 -2 13 -5z m3933 -102 c0 -9 -13 -82 -30
-162 -85 -420 -274 -821 -547 -1160 -133 -166 -426 -441 -453 -425 -5 3 -10
13 -10 21 0 8 -4 14 -10 14 -5 0 -12 11 -16 25 -3 14 -9 25 -13 25 -4 0 -12
12 -19 28 -7 15 -29 55 -50 89 -68 114 -337 575 -357 612 -10 20 -23 38 -27
39 -4 2 -8 8 -8 13 0 6 -16 35 -35 65 -19 30 -35 59 -35 64 0 6 -4 10 -10 10
-6 0 -9 3 -8 8 0 4 -2 15 -6 24 -7 16 30 95 74 158 9 14 32 52 49 85 55 104
107 196 122 214 8 10 29 47 48 82 18 35 50 93 71 129 l38 65 616 -3 c577 -2
616 -3 616 -20z m-4050 -85 c31 -53 62 -106 70 -115 8 -10 16 -24 18 -31 1 -6
14 -30 27 -51 14 -22 23 -40 20 -40 -3 0 2 -8 10 -17 8 -10 16 -22 17 -28 1
-5 10 -19 20 -29 9 -10 15 -23 12 -27 -2 -4 0 -10 6 -14 6 -3 32 -42 58 -87
26 -44 54 -92 63 -107 9 -15 19 -36 23 -47 7 -22 8 -19 -252 -466 -184 -317
-169 -291 -209 -355 -18 -28 -33 -53 -33 -56 0 -6 -97 -167 -111 -183 -9 -11
-22 -5 -72 34 -84 65 -302 283 -362 362 -27 36 -58 74 -68 85 -37 39 -175 253
-230 356 -123 229 -216 486 -267 739 -17 80 -30 153 -30 163 0 16 34 17 617
15 l616 -3 57 -98z m156 67 c1 -9 0 -13 -4 -10 -3 4 -7 14 -8 22 -1 9 0 13 4
10 3 -4 7 -14 8 -22z m4 -35 c0 -4 -7 -6 -15 -3 -8 4 -15 10 -15 15 0 4 7 6
15 3 8 -4 15 -10 15 -15z m4040 -248 c-11 -22 -20 -55 -20 -73 0 -61 -102
-359 -117 -344 -4 4 10 87 39 231 9 50 12 91 9 130 -6 63 48 202 87 224 15 9
17 2 20 -59 2 -54 -2 -78 -18 -109z m-5590 9 c0 -10 7 -23 15 -30 8 -7 15 -25
15 -41 0 -29 45 -135 61 -145 11 -6 11 -141 0 -169 -7 -18 -8 -18 -24 5 -30
47 -56 129 -82 254 -14 69 -25 138 -25 152 0 26 0 27 20 9 11 -10 20 -26 20
-35z m3683 -285 c-3 -9 -8 -14 -10 -11 -3 3 -2 9 2 15 9 16 15 13 8 -4z
m-1739 -121 c3 -8 2 -12 -4 -9 -6 3 -10 10 -10 16 0 14 7 11 14 -7z m1622 -19
c-1 -29 -3 -32 -14 -21 -11 11 -11 18 -3 35 16 29 19 27 17 -14z m1864 -39
c-5 -15 -10 -39 -10 -54 0 -14 -11 -42 -25 -63 -14 -20 -28 -54 -32 -75 -6
-45 -56 -145 -84 -170 -18 -16 -18 -15 -15 37 3 33 10 57 20 65 9 6 16 14 16
18 0 18 64 138 76 143 8 3 14 13 14 23 0 21 40 114 46 107 3 -2 0 -16 -6 -31z
m-3413 18 c-3 -3 -12 -4 -19 -1 -8 3 -5 6 6 6 11 1 17 -2 13 -5z m1506 -39
c-3 -9 -8 -14 -10 -11 -3 3 -2 9 2 15 9 16 15 13 8 -4z m-3145 -473 c4 -24 -7
-29 -26 -10 -18 18 -15 40 6 36 9 -2 18 -13 20 -26z m1910 -367 c296 -495 414
-696 411 -699 -5 -3 -188 10 -254 19 -101 13 -118 17 -127 30 -5 6 -8 6 -8 -1
0 -16 -210 29 -221 47 -5 8 -9 9 -9 3 0 -12 -43 -1 -150 37 -30 11 -64 22 -76
24 -12 3 -42 14 -67 25 l-47 21 26 40 c14 23 37 62 51 87 129 234 337 582 343
575 5 -4 62 -98 128 -208z m1286 -108 c98 -171 189 -329 202 -349 29 -45 35
-39 -116 -91 -193 -66 -350 -104 -370 -92 -8 5 -11 4 -7 -2 6 -10 -23 -17
-118 -29 -16 -2 -67 -9 -111 -14 -45 -6 -104 -10 -132 -8 l-51 3 46 82 c25 45
51 79 56 76 6 -3 7 -1 4 5 -4 5 45 99 108 209 63 109 156 271 207 360 51 89
95 162 98 163 3 0 86 -141 184 -313z m1377 123 c-39 -66 -275 -290 -304 -290
-19 0 7 48 49 90 45 46 94 114 94 130 0 20 89 99 121 108 48 13 63 -1 40 -38z
m-4022 -222 c12 -7 21 -16 21 -20 0 -10 84 -121 104 -138 19 -15 21 -30 4 -30
-41 0 -248 169 -248 203 0 13 92 2 119 -15z m2905 -543 c29 -6 29 -6 8 -21
-61 -42 -282 -114 -353 -114 l-30 0 34 30 c19 17 40 30 46 30 6 0 11 4 11 8 0
14 71 42 132 52 32 5 65 13 74 18 9 5 24 8 33 6 9 -1 29 -6 45 -9z m-1873 -89
c23 -9 77 -14 168 -14 l135 0 34 -38 34 -39 -32 -9 c-23 -7 -51 -4 -103 9 -72
18 -286 91 -296 100 -9 10 28 4 60 -9z"/>
<path d="M3935 5280 c-3 -6 1 -7 9 -4 18 7 21 14 7 14 -6 0 -13 -4 -16 -10z"/>
<path d="M3886 4457 c3 -10 9 -15 12 -12 3 3 0 11 -7 18 -10 9 -11 8 -5 -6z"/>
<path d="M4936 3553 c-4 -11 -1 -11 14 -3 24 13 25 17 5 17 -8 0 -16 -6 -19
-14z"/>
<path d="M4970 3540 c-9 -6 -10 -10 -3 -10 6 0 15 5 18 10 8 12 4 12 -15 0z"/>
</g>
</svg>
